<?xml version="1.0" encoding="UTF-8"?>
<!DOCTYPE svg PUBLIC "-//W3C//DTD SVG 1.1//EN" "http://www.w3.org/Graphics/SVG/1.1/DTD/svg11.dtd">
<!-- Creator: CorelDRAW -->
<svg xmlns="http://www.w3.org/2000/svg" xml:space="preserve" width="2158px" height="1500px" version="1.1" shape-rendering="geometricPrecision" text-rendering="geometricPrecision" image-rendering="optimizeQuality" fill-rule="evenodd" clip-rule="evenodd"
viewBox="0 0 1277.216 887.956"
 xmlns:xlink="http://www.w3.org/1999/xlink"
 xmlns:xodm="http://www.corel.com/coreldraw/odm/2003">
 <g id="Layer_x0020_1">
  <metadata id="CorelCorpID_0Corel-Layer"/>
  <path fill="#FFF215" d="M538.419 43.634l34.815 17.724 0.925 64.825 -35.84 -15.915 0.502 17.422 33.623 15.838 0.994 63.992 -37.628 -17.122 1.506 18.972 35.63 14.756 -0.248 59.92 -36.888 -17.334 1.506 19.593 35.63 15.239 -0.248 61.762 -36.888 -17.227 1.506 19.471 35.63 15.144 -0.244 60.469 -36.892 -17.752 1.506 20.062 35.63 15.604 -0.219 55.855 -36.917 -14.19 1.506 16.026 35.63 12.465 -0.251 51.131 1.104 0.367c4.691,0.03 9.672,0.067 14.955,0.112l0 -51.069 0 -8.681 0 -71.789 0 -0.417 0 -78.083 -3.634 -1.697 3.634 1.478 0 -78.993 -8.041 -3.779 8.041 3.167 0 -76.491 -0.502 -0.228 0 -78.858 0.978 0.562 -0.627 -87.385 -48.929 -25.968 -1.255 21.022zm149.448 492.269l14.085 4.643 -0.033 1.661 0.971 0.342 -0.771 40.091c5.715,0.131 11.54,0.272 17.442,0.42l0 -34.641 0 -16.963 0 -34.886 0 -12.764 0 -73.497 0 -1.618 0 -71.642 0 -6.209 0 -77.563 -12.278 -5.662 12.593 4.921 -0.941 -154.494 -17.25 -8.188 -0.883 -0.601 -0.058 155.346 -14.382 -6.632 1.506 20.778 15.054 6.102 -0.912 58.315 -15.648 -6.846 1.506 19.711 15.054 5.789 -0.962 58.36 -15.598 -7.545 1.506 21.796 15.054 6.401 -0.846 56.759 -15.714 -5.59 1.505 16.026 15.055 4.707 -0.654 32.24 -15.906 -5.965 1.505 16.898zm-28.652 -460.957l17.251 8.686 0.91 158.464 0.031 0.015 0 5.427 0 72.443 0 11.613 0 66.043 0 6.425 0 71.877 0 11.725 0 57.956 0 15.218 0 21.273c-5.865,-0.117 -11.585,-0.223 -17.192,-0.322l0.553 -27.245 -15.055 -4.706 -1.505 -16.026 15.761 5.606 0.799 -51.754 -15.055 -6.184 -1.505 -21.057 15.72 7.347 0.84 -57.7 -15.055 -6.557 -1.505 -22.33 15.666 7.764 0.894 -57.353 -15.055 -6.125 -1.505 -20.854 15.719 7.276 0.841 -57.422 -15.055 -6.518 -1.505 -22.194 14.069 6.93 0.056 -158.378 0.882 0.637zm-62.18 461.538l23.837 7.631 -0.182 37.069c4.503,0.058 9.099,0.12 13.857,0.189l0 -37.289 0 -8.363 0 -58.397 0 -12.231 0 -68.535 0 -8.423 0 -70.085 0 -9.549 0 -70.308 2.217 1.427 0 -85.305 1.085 -84.2 -40.777 -23.178 -1.255 22.514 24.848 11.296 -1.779 60.903 -21.788 -10.795 -0.804 18.975 24.925 11.859 0.75 63.839 -26.44 -13.762 1.506 21.324 23.837 10.155 -0.214 57.851 -25.129 -13.397 1.506 21.841 23.837 10.401 -0.219 60.692 -25.124 -13.567 1.506 22.122 23.837 10.534 -0.209 58.731 -25.134 -12.02 1.506 19.592 23.837 9.33 -0.221 54.93 -25.122 -9.827 1.506 16.026z"/>
  <polygon fill="#FFF215" points="727.91,214.608 739.202,209.708 739.202,583.678 727.909,583.678 "/>
  <polygon fill="#FFF215" points="751.745,205.87 779.973,193.185 779.973,586.079 752.22,586.079 "/>
  <polygon fill="#FFF215" points="793.404,188.972 808.25,183.91 808.25,586.715 794.866,586.715 "/>
  <path fill="#FFF215" d="M817.604 229.431l68.752 -61.551 0 423.226 -67.75 0 -1.002 -361.675zm26.845 222.548l13.299 0 0 106.316 -13.801 0 0.502 -106.316zm14.052 -128.188l13.298 0 0 106.315 -13.8 0 0.502 -106.315zm-27.601 -75.794l13.298 0 0 106.315 -13.8 0 0.502 -106.315z"/>
  <path fill="#FFF215" d="M895.133 325.707l97.357 40.077 0 231.469 -96.605 0 -0.752 -271.546zm11.665 123.569l5.645 11.304 69.631 20.424 -6.901 -12.589 -68.375 -19.139zm0 -32.884l5.645 11.304 69.631 20.424 -6.901 -12.589 -68.375 -19.139zm0 -30.572l5.645 11.304 69.631 20.424 -6.901 -12.588 -68.375 -19.14z"/>
  <path fill="#EE3338" fill-rule="nonzero" d="M159.272 846.128l-34.827 0 -13.753 -34.815 -63.665 0 -13.087 34.815 -33.94 0 61.89 -152.931 33.939 0 63.443 152.931zm-59.006 -60.446l-21.739 -56.816 -21.517 56.816 43.256 0z"/>
  <polygon id="1" fill="#EE3338" fill-rule="nonzero" points="176.611,846.128 176.611,693.197 207.889,693.197 272.884,795.293 272.884,693.197 302.609,693.197 302.609,846.128 270.444,846.128 206.336,746.381 206.336,846.128 "/>
  <polygon id="2" fill="#EE3338" fill-rule="nonzero" points="438.552,846.128 381.986,693.197 416.591,693.197 456.741,806.4 495.783,693.197 529.722,693.197 472.935,846.128 "/>
  <path id="3" fill="#EE3338" fill-rule="nonzero" d="M689.179 846.128l-34.827 0 -13.753 -34.815 -63.665 0 -13.087 34.815 -33.94 0 61.89 -152.931 33.939 0 63.443 152.931zm-59.006 -60.446l-21.739 -56.816 -21.517 56.816 43.256 0zm-36.601 102.31l0 -29.262 30.39 0 0 29.262 -30.39 0z"/>
  <polygon id="4" fill="#EE3338" fill-rule="nonzero" points="706.519,846.128 706.519,693.197 737.796,693.197 802.791,795.293 802.791,693.197 832.516,693.197 832.516,846.128 800.351,846.128 736.243,746.381 736.243,846.128 "/>
  <polygon id="5" fill="#EE3338" fill-rule="nonzero" points="963.801,846.128 963.801,719.041 916.551,719.041 916.551,693.197 1042.771,693.197 1042.771,719.041 995.744,719.041 995.744,846.128 "/>
  <path id="6" fill="#EE3338" fill-rule="nonzero" d="M1062.476 846.128l0 -152.931 32.165 0 0 152.931 -32.165 0zm-3.549 -161.689l14.863 -31.184 34.161 0 -29.725 31.184 -19.299 0z"/>
  <polygon id="7" fill="#EE3338" fill-rule="nonzero" points="1125.401,846.128 1125.401,693.197 1156.679,693.197 1221.674,795.293 1221.674,693.197 1251.399,693.197 1251.399,846.128 1219.234,846.128 1155.126,746.381 1155.126,846.128 "/>
  <path fill="#FFF215" d="M264.878 35.789l58.089 0 0 560.058 -58.089 0 0 -560.058zm17.575 17.718l22.938 0 0 538.67 -22.938 0 0 -538.67z"/>
  <path fill="#FFF215" d="M346.486 120.473l61.788 0 0 470.788 -61.788 0 0 -470.788zm19.76 17.464l22.266 0 0 453.324 -22.266 0 0 -453.324z"/>
  <path fill="#EE3338" fill-rule="nonzero" d="M245.808 453.323l0 28.001 -31.579 11.058 0 51.188 31.579 10.522 0 27.288 -138.712 -49.76 0 -27.288 138.712 -51.009zm-54.826 47.442l-51.533 17.478 51.533 17.301 0 -34.779z"/>
  <polygon id="1" fill="#EE3338" fill-rule="nonzero" points="245.808,314.683 107.096,360.163 107.096,332.34 209.774,300.059 107.096,268.668 107.096,241.38 245.808,287.038 "/>
  <polygon id="2" fill="#EE3338" fill-rule="nonzero" points="245.808,100.452 130.537,100.452 130.537,138.441 107.096,138.441 107.096,36.958 130.537,36.958 130.537,74.769 245.808,74.769 "/>
  <path fill="#EE3338" d="M349.895 29.692l175.559 -29.692 0.419 580.628c0,0 476.168,-2.509 751.343,46.002 0,0 -1263.797,-11.708 -1272.161,-0.835 0,0 211.863,-41.465 425.136,-42.656l0 -483.605 -79.457 0 -0.839 -69.842z"/>
 </g>
</svg>
